<?xml version="1.0" standalone="no"?>
<!DOCTYPE svg PUBLIC "-//W3C//DTD SVG 20010904//EN"
 "http://www.w3.org/TR/2001/REC-SVG-20010904/DTD/svg10.dtd">
<svg version="1.0" xmlns="http://www.w3.org/2000/svg"
 width="300.000000pt" height="157.000000pt" viewBox="0 0 300.000000 157.000000"
 preserveAspectRatio="xMidYMid meet">
<metadata>
Created by potrace 1.10, written by Peter Selinger 2001-2011
</metadata>
<g transform="translate(0.000000,157.000000) scale(0.100000,-0.100000)"
fill="#000000" stroke="none">
<path d="M662 1238 c-13 -26 -28 -193 -27 -299 0 -38 -1 -69 -4 -69 -15 0 -71
25 -71 32 0 4 -7 8 -15 8 -12 0 -9 12 13 58 16 31 27 63 26 70 -1 6 -2 16 -3
21 0 6 -14 17 -30 27 -20 12 -27 22 -23 36 6 24 -25 58 -54 58 -23 0 -74 -54
-74 -78 0 -7 -4 -12 -10 -12 -5 0 -10 -7 -10 -15 0 -8 -5 -26 -12 -40 -10 -23
-16 -26 -43 -21 -24 5 -36 1 -49 -13 -23 -26 -14 -54 27 -80 18 -11 51 -33 74
-48 23 -16 78 -46 122 -68 44 -22 81 -43 81 -47 0 -13 -82 -60 -89 -51 -4 4
-24 29 -45 56 -39 49 -65 58 -99 33 -15 -12 -22 -12 -47 1 -38 18 -70 3 -70
-33 0 -28 43 -119 71 -150 19 -20 19 -21 -1 -46 -27 -35 -25 -54 5 -74 24 -16
27 -16 48 4 12 11 36 23 54 27 18 3 48 17 68 31 20 13 38 24 41 24 3 0 37 20
75 45 l69 45 0 -59 0 -58 -65 -5 c-77 -7 -95 -19 -95 -64 0 -24 -5 -34 -20
-39 -27 -9 -39 -35 -29 -62 14 -37 45 -46 136 -40 75 5 83 4 83 -12 0 -21 30
-51 52 -51 25 0 41 27 35 60 -4 16 -2 32 3 35 6 4 10 66 10 144 0 76 3 141 6
144 9 9 84 -34 84 -47 0 -6 -11 -33 -25 -60 -32 -62 -31 -67 5 -99 17 -16 30
-37 30 -51 0 -26 28 -56 53 -56 24 0 55 38 90 111 31 64 33 66 60 56 22 -7 32
-5 48 9 10 9 19 24 19 32 0 15 -45 62 -59 62 -5 0 -14 7 -21 15 -11 13 -42 32
-170 103 -85 47 -83 43 -32 69 25 13 50 23 56 23 6 0 19 -19 30 -41 10 -22 29
-47 43 -56 24 -16 28 -16 55 0 27 15 31 16 54 0 19 -12 30 -13 49 -5 47 22 39
71 -28 170 l-29 44 21 22 c26 28 27 48 2 70 -19 17 -22 17 -75 -8 -30 -14 -62
-26 -70 -26 -8 0 -17 -4 -21 -9 -3 -6 -18 -16 -33 -24 -36 -18 -76 -41 -82
-47 -3 -3 -20 -13 -39 -24 -37 -20 -50 -13 -45 27 1 12 3 32 3 45 1 20 6 22
64 22 75 0 104 21 93 65 -4 15 -2 25 4 25 6 0 22 11 35 24 27 27 25 55 -7 75
-21 13 -161 17 -191 6 -11 -5 -13 0 -10 18 9 48 -53 77 -75 35z m53 -23 c0
-13 -8 -21 -22 -23 -17 -3 -23 2 -23 16 0 10 3 22 7 26 13 13 38 1 38 -19z
m-7 -53 c9 -7 12 -45 10 -158 -3 -136 -5 -149 -22 -152 -10 -2 -22 2 -27 10
-14 21 -11 282 3 296 14 14 19 14 36 4z m232 -7 c10 -12 10 -18 0 -30 -9 -11
-34 -15 -95 -15 -61 0 -86 4 -95 15 -10 12 -10 18 0 30 9 11 34 15 95 15 61 0
86 -4 95 -15z m-434 -9 c3 -8 -13 -48 -36 -90 -30 -54 -47 -76 -61 -76 -11 0
-22 6 -25 14 -5 13 30 92 64 144 16 25 50 30 58 8z m54 -91 c10 -11 6 -25 -20
-70 -22 -39 -37 -55 -47 -51 -8 3 -17 6 -19 6 -13 0 -1 47 22 86 27 46 43 54
64 29z m326 0 c11 -28 -16 -45 -71 -45 -56 0 -80 15 -69 44 9 22 132 23 140 1z
m208 -31 c20 -8 20 -28 0 -44 -12 -11 -18 -10 -31 3 -13 13 -14 19 -3 31 14
18 13 18 34 10z m-765 -38 c9 -11 8 -18 -5 -31 -15 -15 -19 -15 -32 -1 -17 17
-10 46 11 46 8 0 20 -6 26 -14z m709 -9 c6 -7 8 -18 4 -24 -4 -6 -62 -43 -130
-83 -114 -67 -125 -72 -140 -57 -14 15 -14 18 3 37 20 22 223 140 241 140 6 0
16 -6 22 -13z m-532 -79 c64 -35 119 -69 121 -76 3 -8 -1 -20 -9 -29 -14 -13
-29 -7 -139 52 -128 69 -141 79 -132 102 9 24 42 14 159 -49z m613 -53 c44
-76 47 -105 12 -105 -23 0 -106 142 -97 165 13 35 43 14 85 -60z m-92 -32 c14
-24 22 -50 19 -59 -11 -30 -46 -10 -77 43 -27 47 -28 52 -13 67 20 21 35 10
71 -51z m-299 -9 c26 -18 28 -41 5 -66 -22 -24 -49 -23 -67 4 -20 29 -20 34 4
58 24 24 29 24 58 4z m-392 -91 c45 -73 48 -103 13 -103 -27 0 -113 148 -97
167 20 25 40 9 84 -64z m94 30 c34 -53 35 -77 4 -81 -16 -2 -28 8 -48 42 -32
55 -34 86 -6 86 13 0 31 -16 50 -47z m495 -54 c127 -71 138 -79 129 -102 -10
-27 -32 -21 -149 44 -126 70 -140 81 -132 103 10 27 37 19 152 -45z m-288 25
c3 -9 -2 -23 -13 -34 -25 -23 -224 -140 -240 -140 -19 0 -26 32 -11 47 25 25
221 141 240 142 10 1 20 -6 24 -15z m104 -174 c7 -151 1 -181 -35 -167 -12 5
-16 32 -18 152 -3 146 1 168 32 163 12 -3 16 -30 21 -148z m185 45 c8 -19 -9
-62 -41 -100 -22 -28 -25 -29 -40 -14 -16 15 -15 20 5 60 12 24 27 50 32 57
14 17 37 15 44 -3z m178 -1 c20 -8 21 -43 1 -50 -24 -10 -47 14 -34 37 11 21
11 21 33 13z m-756 -48 c4 -21 -14 -37 -35 -29 -14 5 -18 35 -6 47 12 12 38 1
41 -18z m666 -1 c5 -13 -31 -87 -66 -137 -22 -31 -45 -36 -55 -12 -6 16 44
120 74 156 16 18 38 15 47 -7z m-359 -40 c0 -15 -10 -21 -45 -27 -57 -11 -90
-3 -90 21 0 28 10 32 75 29 52 -3 60 -6 60 -23z m0 -95 c0 -25 0 -25 -95 -25
-88 0 -95 2 -95 20 0 25 32 34 120 32 68 -2 70 -3 70 -27z m88 -62 c7 -21 -4
-38 -23 -38 -23 0 -34 16 -26 35 7 18 43 20 49 3z"/>
<path d="M2635 1192 c-82 -15 -180 -44 -195 -57 -11 -10 -20 -33 -22 -53 l-3
-35 -136 2 c-75 1 -153 -1 -173 -5 -41 -7 -65 -35 -68 -78 -2 -25 -4 -25 -15
-10 -7 10 -13 23 -13 30 0 7 -14 24 -31 38 -29 24 -37 26 -132 26 -115 -1
-141 -10 -167 -61 l-18 -34 -15 38 c-10 22 -26 41 -42 47 -14 5 -88 9 -166 7
-135 -2 -142 -3 -160 -26 -23 -28 -25 -88 -4 -118 8 -12 31 -27 50 -33 l36
-12 -3 -71 c-3 -70 -3 -70 -37 -82 -18 -6 -39 -19 -47 -30 -21 -28 -17 -88 7
-119 l20 -26 208 0 c202 0 208 1 229 23 11 12 27 40 34 62 l13 40 55 0 55 0
25 -53 c14 -29 32 -57 40 -62 8 -5 63 -10 121 -10 97 0 107 2 127 23 13 14 22
36 22 54 0 59 5 63 86 63 l74 0 0 -48 c0 -38 5 -53 23 -70 22 -21 33 -22 188
-22 200 0 209 4 209 85 0 46 -4 56 -27 75 -23 18 -25 24 -15 40 15 24 16 85 1
111 -8 17 -6 25 15 46 21 20 26 36 26 74 0 39 -4 51 -26 68 -15 12 -33 21 -41
21 -11 0 -13 5 -8 18 19 43 16 69 -10 100 -26 31 -37 34 -90 24z m79 -74 c5
-20 2 -28 -11 -32 -46 -12 -234 -48 -237 -45 -3 2 -7 21 -11 42 -7 34 -5 37
16 37 13 1 69 11 124 24 106 24 107 24 119 -26z m-1099 -158 l0 -50 -52 0 -53
0 0 -120 0 -120 50 0 c45 0 50 -2 51 -22 0 -22 1 -22 9 -3 4 11 22 74 40 140
17 66 38 144 47 173 l14 52 123 0 123 0 47 -177 c26 -98 51 -189 56 -203 5
-16 9 52 9 178 l1 202 165 0 165 0 0 -50 0 -50 -110 0 -110 0 0 -50 0 -50 103
0 103 0 0 -50 0 -50 -104 0 -103 0 2 -67 c1 -38 -1 -69 -4 -70 -4 -2 -56 -3
-116 -3 l-109 0 -13 65 -13 65 -91 0 -91 0 -18 -67 -17 -68 -210 0 -209 0 0
53 0 52 50 0 50 0 0 120 0 120 -50 0 -50 0 0 50 0 50 158 0 157 0 0 -50z
m1165 0 l0 -50 -120 0 -120 0 0 -38 0 -38 105 4 105 4 0 -51 0 -51 -105 0
-105 0 0 -35 0 -34 118 -3 117 -3 3 -47 3 -47 -176 -3 c-97 -2 -177 -2 -178
-1 -1 1 -1 101 1 222 l3 221 174 0 175 0 0 -50z m-1141 -92 c0 -13 -10 -52
-22 -88 -17 -51 -26 -65 -42 -65 -18 0 -20 7 -20 69 0 51 4 71 15 76 8 4 24
12 35 18 30 16 35 14 34 -10z m737 -11 c4 -4 -23 -7 -60 -7 -37 0 -65 4 -62 9
7 10 112 9 122 -2z"/>
<path d="M1825 968 c-2 -7 -11 -41 -20 -75 -8 -34 -18 -69 -21 -78 -5 -12 4
-15 55 -15 34 0 61 3 61 8 0 4 -9 44 -21 90 -14 53 -27 82 -36 82 -7 0 -16 -6
-18 -12z"/>
<path d="M1291 466 c-13 -16 1 -90 19 -101 37 -23 85 68 53 100 -18 19 -57 19
-72 1z m69 -16 c0 -5 -4 -10 -10 -10 -5 0 -10 -13 -10 -30 0 -16 -4 -30 -10
-30 -5 0 -10 14 -10 30 0 17 -4 30 -10 30 -5 0 -10 5 -10 10 0 6 14 10 30 10
17 0 30 -4 30 -10z"/>
<path d="M1442 468 c-17 -17 -15 -84 4 -102 36 -37 84 -8 84 51 0 46 -14 63
-50 63 -14 0 -31 -5 -38 -12z m68 -18 c0 -5 -9 -10 -20 -10 -28 0 -25 -20 3
-21 l22 -2 -22 -4 c-29 -5 -30 -23 -2 -23 11 0 17 -4 14 -10 -3 -5 -15 -10
-26 -10 -16 0 -19 7 -19 45 0 41 2 45 25 45 14 0 25 -4 25 -10z"/>
<path d="M1596 458 c-22 -32 -20 -61 8 -87 33 -31 71 -20 86 25 10 29 9 39 -4
59 -21 33 -69 34 -90 3z m69 -14 c9 -9 13 -19 10 -22 -3 -4 -10 0 -15 7 -10
17 -40 7 -40 -13 0 -20 19 -31 33 -17 15 15 27 14 21 -3 -9 -23 -35 -28 -55
-10 -23 21 -24 32 -2 56 20 22 27 22 48 2z"/>
<path d="M1756 459 c-15 -23 -13 -62 6 -85 16 -21 70 -26 90 -8 38 35 11 97
-49 109 -25 5 -34 2 -47 -16z m53 -30 l20 -32 4 34 c3 28 4 25 5 -13 1 -27 0
-48 -3 -48 -3 0 -14 15 -25 33 l-20 32 0 -27 c0 -16 -4 -28 -10 -28 -5 0 -10
18 -10 40 0 48 14 51 39 9z"/>
<path d="M1937 462 c-44 -48 2 -129 59 -104 38 18 49 53 30 91 -19 36 -62 43
-89 13z m57 -8 c23 -9 21 -61 -3 -74 -39 -20 -71 47 -33 69 21 13 17 12 36 5z"/>
<path d="M1962 418 c2 -12 10 -23 18 -23 22 0 19 39 -3 43 -15 3 -18 -1 -15
-20z"/>
<path d="M2245 456 c-23 -34 -16 -74 17 -94 23 -14 30 -14 53 -2 54 29 39 112
-22 118 -25 2 -35 -2 -48 -22z m72 -22 c12 -19 11 -24 -5 -44 -16 -19 -22 -21
-40 -11 -24 13 -29 50 -10 69 17 17 38 11 55 -14z"/>
<path d="M2272 418 c2 -12 10 -23 18 -23 22 0 19 39 -3 43 -15 3 -18 -1 -15
-20z"/>
<path d="M2417 462 c-10 -10 -17 -33 -17 -50 0 -54 68 -83 103 -44 21 23 21
45 2 82 -18 35 -62 41 -88 12z m57 -8 c24 -9 19 -24 -6 -21 -17 1 -24 -4 -26
-20 -2 -15 2 -23 12 -23 20 0 29 17 14 24 -7 3 -4 5 7 3 11 -1 21 -9 23 -18 4
-19 -38 -31 -62 -17 -21 12 -20 54 2 67 21 13 17 12 36 5z"/>
<path d="M2582 460 c-25 -41 -4 -110 35 -110 18 0 43 36 43 64 0 60 -50 90
-78 46z m58 -8 c0 -4 -6 -14 -12 -20 -10 -10 -10 -17 0 -32 11 -18 10 -20 -15
-20 -20 0 -24 3 -14 9 9 6 12 19 8 40 -6 26 -4 31 13 31 11 0 20 -4 20 -8z"/>
<path d="M2731 454 c-23 -30 -27 -64 -9 -82 14 -14 67 -16 87 -3 21 13 16 59
-9 87 -30 31 -44 30 -69 -2z m58 -25 c15 -45 14 -51 -9 -37 -16 11 -22 9 -35
-7 -16 -19 -16 -19 -9 5 21 78 36 89 53 39z"/>
<path d="M2102 458 c-7 -7 -12 -28 -12 -48 0 -46 30 -69 66 -49 29 15 29 14 1
63 -26 45 -37 52 -55 34z m28 -33 c0 -30 4 -35 23 -35 19 -1 20 -2 5 -10 -29
-17 -48 -1 -48 41 0 21 5 39 10 39 6 0 10 -16 10 -35z"/>
</g>
</svg>
